<svg width="50.00000000000001" height="50.00000000000001" xmlns="http://www.w3.org/2000/svg">

 <g>
  <title>background</title>
  <rect fill="none" id="canvas_background" height="52" width="52" y="-1" x="-1"/>
 </g>
 <g>
  <title>Layer 1</title>
  <path stroke="null" id="svg_1" fill-rule="evenodd" clip-rule="evenodd" fill="#3A589B" d="m21.498035,38.495176l5.576683,0l0,-13.496831l3.72027,0l0.492839,-4.650544l-4.213108,0l0.005788,-2.32858c0,-1.212251 0.115767,-1.863029 1.855587,-1.863029l2.325272,0l0,-4.651371l-3.721097,0c-4.46945,0 -6.042234,2.256638 -6.042234,6.050503l0,2.792476l-2.785861,0l0,4.651371l2.785861,0l0,13.496004zm3.501965,11.312133c-13.70025,0 -24.80731,-11.10706 -24.80731,-24.80731c0,-13.701077 11.10706,-24.80731 24.80731,-24.80731s24.80731,11.106233 24.80731,24.80731c0,13.70025 -11.10706,24.80731 -24.80731,24.80731z"/>
 </g>
</svg>