<svg width="50" height="50" xmlns="http://www.w3.org/2000/svg">
 <defs>
  <linearGradient y2="Infinity" y1="-Infinity" x2="Infinity" x1="Infinity" id="SVGID_1_">
   <stop stop-color="#517FA6" offset="0"/>
   <stop stop-color="#426699" offset="1"/>
  </linearGradient>
  <linearGradient y2="Infinity" y1="-Infinity" x2="Infinity" x1="-Infinity" id="SVGID_2_">
   <stop stop-color="#517FA6" offset="0"/>
   <stop stop-color="#426699" offset="1"/>
  </linearGradient>
 </defs>
 <g>
  <title>background</title>
  <rect fill="none" id="canvas_background" height="52" width="52" y="-1" x="-1"/>
 </g>
 <g>
  <title>Layer 1</title>
  <path id="svg_2" fill="url(#SVGID_1_)" d="m271.06,214.363l0,-0.525c-0.1,0.17 -0.247,0.36 -0.347,0.525l0.347,0z"/>
  <path stroke="null" id="svg_3" fill="url(#SVGID_2_)" d="m25,0.29764c-13.642759,0 -24.70236,11.059601 -24.70236,24.70236c0,13.642759 11.059601,24.70236 24.70236,24.70236c13.642759,0 24.70236,-11.059601 24.70236,-24.70236c0,-13.642759 -11.059601,-24.70236 -24.70236,-24.70236zm-6.802771,34.309506l-5.341582,0l0,-16.069009l5.341582,0l0,16.069009zm-2.669798,-18.261934l-0.036026,0c-1.792172,0 -2.953045,-1.235108 -2.953045,-2.778075c0,-1.576611 1.196105,-2.775792 3.023509,-2.775792c1.828198,0 2.952251,1.199181 2.987483,2.775792c0.000099,1.542967 -1.159185,2.778075 -3.021921,2.778075zm21.934209,18.262231l-5.341582,0l0,-8.597325c0,-2.159479 -0.77332,-3.633669 -2.706519,-3.633669c-1.476274,0 -2.354595,0.993247 -2.741553,1.953843c-0.140928,0.343786 -0.176954,0.821354 -0.176954,1.302595l0,8.974258l-5.342376,0c0,0 0.071258,-14.561075 0,-16.069009l5.342078,0l0,2.277482c0.709505,-1.093187 1.977662,-2.655209 4.815185,-2.655209c3.516262,0 6.151523,2.296338 6.151821,7.232106l0,9.214928l-0.000099,0z"/>
 </g>
</svg>