<svg width="50" height="50" xmlns="http://www.w3.org/2000/svg">

 <g>
  <title>background</title>
  <rect fill="none" id="canvas_background" height="52" width="52" y="-1" x="-1"/>
 </g>
 <g>
  <title>Layer 1</title>
  <path stroke="null" id="svg_1" fill="#CA2028" d="m25.00078,0.056942c-13.774699,0 -24.942278,11.16602 -24.942278,24.943837c0,10.214858 6.140453,18.987379 14.930127,22.843484c-0.070168,-1.743277 -0.012474,-3.834275 0.43348,-5.725684c0.480259,-2.028626 3.209003,-13.595381 3.209003,-13.595381s-0.798352,-1.592027 -0.798352,-3.943425c0,-3.693939 2.145572,-6.455428 4.813504,-6.455428c2.267196,0 3.363372,1.701177 3.363372,3.742277c0,2.279671 -1.45637,5.69138 -2.201706,8.850486c-0.625272,2.644543 1.328508,4.802589 3.93251,4.802589c4.726184,0 7.908679,-6.067167 7.908679,-13.260136c0,-5.465284 -3.681465,-9.555281 -10.377023,-9.555281c-7.565637,0 -12.277788,5.639924 -12.277788,11.942542c0,2.173639 0.640865,3.706414 1.643483,4.893027c0.463107,0.545749 0.527037,0.762489 0.357076,1.38932c-0.115387,0.461548 -0.389821,1.56396 -0.505207,2.000559c-0.166843,0.634628 -0.676728,0.859164 -1.248985,0.623713c-3.484996,-1.418947 -5.106649,-5.23607 -5.106649,-9.527214c0,-7.083819 5.97361,-15.581907 17.827273,-15.581907c9.520977,0 15.79241,6.892027 15.79241,14.289262c0,9.784496 -5.443454,17.094411 -13.461283,17.094411c-2.69444,0 -5.228273,-1.45637 -6.092115,-3.10609c0,0 -1.450132,5.747514 -1.754192,6.854604c-0.530156,1.919476 -1.565519,3.84519 -2.510444,5.34366c2.239129,0.662695 4.609238,1.022889 7.065108,1.022889c13.774699,0 24.940719,-11.16446 24.940719,-24.942278s-11.16602,-24.943837 -24.940719,-24.943837z"/>
 </g>
</svg>