<svg width="50" height="50" xmlns="http://www.w3.org/2000/svg">

 <title/>
 <g>
  <title>background</title>
  <rect fill="none" id="canvas_background" height="52" width="52" y="-1" x="-1"/>
 </g>
 <g>
  <title>Layer 1</title>
  <path stroke="null" fill="#ff4500" id="svg_2" d="m24.999999,49.777676l0,0c-13.682233,0 -24.777677,-11.095444 -24.777677,-24.777677l0,0c0,-13.682233 11.095444,-24.777677 24.777677,-24.777677l0,0c13.682233,0 24.777677,11.095444 24.777677,24.777677l0,0c0,13.682233 -11.095444,24.777677 -24.777677,24.777677z" class="st0"/>
  <path stroke="null" fill="#ffffff" id="Fill-3" d="m29.59431,29.39159c-1.15209,0 -2.091425,-0.939335 -2.091425,-2.091425c0,-1.15209 0.939335,-2.091425 2.091425,-2.091425s2.091425,0.939335 2.091425,2.091425c0,1.15209 -0.939335,2.091425 -2.091425,2.091425m0.369311,3.432185c-1.429073,1.425059 -4.162778,1.537458 -4.965629,1.537458c-0.80285,0 -3.540569,-0.112399 -4.965629,-1.537458c-0.212755,-0.212755 -0.212755,-0.553967 0,-0.766722c0.212755,-0.212755 0.553967,-0.212755 0.766722,0c0.899192,0.899192 2.822019,1.220332 4.198907,1.220332c1.372874,0 3.299714,-0.32114 4.198907,-1.220332c0.212755,-0.212755 0.553967,-0.212755 0.766722,0c0.208741,0.212755 0.208741,0.553967 0,0.766722m-11.661399,-5.523609c0,-1.15209 0.939335,-2.091425 2.091425,-2.091425c1.15209,0 2.091425,0.939335 2.091425,2.091425c0,1.15209 -0.939335,2.091425 -2.091425,2.091425c-1.15209,0 -2.091425,-0.939335 -2.091425,-2.091425m20.071255,-2.091425c0,-1.617743 -1.308646,-2.926389 -2.926389,-2.926389c-0.790807,0 -1.505344,0.313112 -2.031211,0.822921c-1.999097,-1.44513 -4.756888,-2.376437 -7.82779,-2.484821l1.332731,-6.274274l4.355462,0.927292c0.052185,1.107933 0.959406,1.991069 2.079382,1.991069c1.156104,0 2.091425,-0.935321 2.091425,-2.091425c0,-1.156104 -0.935321,-2.091425 -2.091425,-2.091425c-0.822921,0 -1.525415,0.477696 -1.866627,1.168147l-4.865272,-1.035677c-0.136485,-0.0281 -0.276983,-0.004014 -0.393397,0.072257c-0.116413,0.076271 -0.196698,0.192684 -0.224798,0.329169l-1.461187,6.884441c-0.008029,0.040143 0,0.076271 0,0.116413c-3.127102,0.080285 -5.937077,1.015606 -7.968288,2.480807c-0.525867,-0.505796 -1.236389,-0.814893 -2.023183,-0.814893c-1.617743,0 -2.926389,1.31266 -2.926389,2.926389c0,1.188218 0.710522,2.211852 1.730142,2.669477c-0.044157,0.289026 -0.068242,0.586081 -0.068242,0.887149c0,4.50399 5.242612,8.152944 11.70957,8.152944c6.466958,0 11.70957,-3.648954 11.70957,-8.152944c0,-0.297055 -0.024086,-0.590095 -0.068242,-0.879121c1.015606,-0.457625 1.734156,-1.481259 1.734156,-2.677505" class="st1"/>
 </g>
</svg>