<svg width="50" height="50" xmlns="http://www.w3.org/2000/svg">

 <g>
  <title>background</title>
  <rect fill="none" id="canvas_background" height="52" width="52" y="-1" x="-1"/>
 </g>
 <g>
  <title>Layer 1</title>
  <circle stroke="null" id="svg_2" r="24.881382" fill-rule="evenodd" fill="#44546A" cy="25" cx="25" clip-rule="evenodd"/>
  <path stroke="null" id="svg_3" fill="#FFFFFF" d="m29.653283,35.088208c-0.866987,0 -1.633729,-0.201845 -2.308353,-0.605536c-0.51071,-0.302091 -0.990262,-0.940139 -0.990262,-1.490134s0,-0.946912 0,-2.709335l0,-8.128004l6.773337,0l0,-5.418669l-6.773337,0l0,-6.773337l-5.418669,0c0,0.780288 0,2.709335 0,2.709335c0,2.99246 -2.426209,5.418669 -5.418669,5.418669l0,4.064002l4.064002,0l0,10.837338c0,1.389889 -0.041995,2.476332 0.2032,3.09406c0.292608,0.732875 0.657014,1.38447 1.410209,2.036065c0.755904,0.647531 1.351958,1.03632 2.42079,1.385825c1.169078,0.38608 2.404534,0.52832 3.684695,0.52832c1.223265,0 2.36254,-0.123275 3.415116,-0.36847c1.052576,-0.246549 2.503425,-0.736939 3.76733,-1.528065l0,-4.741336c-1.500971,1.165014 -3.291842,1.68927 -4.829389,1.68927z"/>
 </g>
</svg>