<svg width="20" height="20" xmlns="http://www.w3.org/2000/svg">

 <g>
  <title>background</title>
  <rect fill="none" id="canvas_background" height="22" width="22" y="-1" x="-1"/>
 </g>
 <g>
  <title>Layer 1</title>
  <path stroke="#444242" id="svg_1" stroke-miterlimit="10" fill="#cccccc" d="m19.27985,10.000126c0,5.125129 -4.154941,9.279756 -9.280007,9.279756s-9.279693,-4.154626 -9.279693,-9.279756c0,-5.125224 4.154658,-9.280007 9.279693,-9.280007c5.125066,0.000031 9.280007,4.154815 9.280007,9.280007z"/>
  <path stroke="null" id="svg_2" fill="#666666" d="m15.679145,13.275535c-0.179354,-0.812091 -0.675666,-1.357308 -1.481155,-1.571552c-0.796158,-0.21181 -1.48477,0.015232 -2.043117,0.620639c-0.06646,0.071992 -0.111419,0.08538 -0.20034,0.040533c-0.924542,-0.466734 -1.851555,-0.928746 -2.77783,-1.392161c-0.295162,-0.147673 -0.590139,-0.295752 -0.882423,-0.442244c0.097699,-0.427898 0.098104,-0.573911 0.004684,-1.05997c0.014863,-0.009589 0.021649,-0.014863 0.029247,-0.018662c1.218597,-0.609649 2.437821,-1.218044 3.654758,-1.830938c0.086524,-0.043594 0.118647,-0.001807 0.166409,0.050343c0.498193,0.543557 1.110203,0.774213 1.844658,0.670946c1.136499,-0.15977 1.930813,-1.307887 1.682896,-2.434907c-0.237258,-1.078042 -1.223723,-1.759388 -2.316703,-1.600135c-0.972635,0.141698 -1.719962,0.992404 -1.72472,1.974259c-0.000848,0.19241 0.032271,0.384968 0.050454,0.584865c-1.221216,0.610386 -2.451467,1.224203 -3.679874,1.841634c-0.075681,0.038135 -0.10478,0.002287 -0.14664,-0.043963c-0.498452,-0.549938 -1.112784,-0.784466 -1.852514,-0.681826c-1.129602,0.156709 -1.935054,1.301838 -1.685662,2.420524c0.181087,0.812017 0.678875,1.355648 1.484143,1.568896c0.791179,0.209597 1.474886,-0.017924 2.035113,-0.614111c0.031017,-0.032972 0.061297,-0.066681 0.092978,-0.101166c1.263666,0.631999 2.515899,1.258244 3.768058,1.884564c-0.02294,0.127609 -0.05381,0.247068 -0.06362,0.368223c-0.01029,0.126651 -0.011507,0.256104 0.002508,0.382238c0.129343,1.166779 1.178913,1.970128 2.348826,1.801728c1.137458,-0.163753 1.937304,-1.297523 1.689867,-2.417757z"/>
 </g>
</svg>